<svg width="24" height="24" viewBox="0 0 24 24" fill="none" xmlns="http://www.w3.org/2000/svg">
<path fill-rule="evenodd" clip-rule="evenodd" d="M11.9648 0.800049C5.63456 0.800049 0.5 5.8942 0.5 12.1747C0.5 17.199 3.80581 21.4558 8.30734 22.991C8.87003 23.0608 9.08104 22.7119 9.08104 22.4328C9.08104 22.1536 9.08104 21.4558 9.08104 20.4788C5.9159 21.1767 5.21254 18.9436 5.21254 18.9436C4.72018 17.6177 3.94648 17.2688 3.94648 17.2688C2.89144 16.571 4.01682 16.571 4.01682 16.571C5.1422 16.6408 5.77523 17.7573 5.77523 17.7573C6.83028 19.5019 8.44801 19.0134 9.08104 18.7343C9.15138 17.9667 9.50306 17.4782 9.7844 17.199C7.25229 16.9199 4.57951 15.9429 4.57951 11.5466C4.57951 10.2905 5.00153 9.31357 5.77523 8.47617C5.70489 8.26682 5.28287 7.08051 5.9159 5.54529C5.9159 5.54529 6.90061 5.26616 9.08104 6.7316C9.99541 6.45247 10.9801 6.38268 11.9648 6.38268C12.9495 6.38268 13.9342 6.52225 14.8486 6.7316C17.0291 5.26616 18.0138 5.54529 18.0138 5.54529C18.6468 7.08051 18.2248 8.26682 18.1544 8.54596C18.8578 9.31357 19.3502 10.3603 19.3502 11.6164C19.3502 16.0127 16.6774 16.9199 14.1453 17.199C14.5673 17.548 14.919 18.2458 14.919 19.2925C14.919 20.8278 14.919 22.0141 14.919 22.4328C14.919 22.7119 15.13 23.0608 15.6927 22.991C20.2645 21.4558 23.5 17.199 23.5 12.1747C23.4297 5.8942 18.2951 0.800049 11.9648 0.800049Z" fill="#1F222E"/>
</svg>
